solid 
   facet normal -1.224647e-016 -1.000000e+000 -0.000000e+000
      outer loop
         vertex 0.000000e+000 0.000000e+000 0.000000e+000
         vertex 0.000000e+000 0.000000e+000 1.000000e+000
         vertex -1.650000e+001 2.020667e-015 1.000000e+000
      endloop
   endfacet
   facet normal -1.224647e-016 -1.000000e+000 0.000000e+000
      outer loop
         vertex -1.650000e+001 2.020667e-015 0.000000e+000
         vertex 0.000000e+000 0.000000e+000 0.000000e+000
         vertex -1.650000e+001 2.020667e-015 1.000000e+000
      endloop
   endfacet
   facet normal -1.000000e+000 0.000000e+000 0.000000e+000
      outer loop
         vertex -1.650000e+001 2.020667e-015 0.000000e+000
         vertex -1.650000e+001 2.020667e-015 1.000000e+000
         vertex -1.650000e+001 2.940000e+001 1.000000e+000
      endloop
   endfacet
   facet normal -1.000000e+000 0.000000e+000 0.000000e+000
      outer loop
         vertex -1.650000e+001 2.940000e+001 0.000000e+000
         vertex -1.650000e+001 2.020667e-015 0.000000e+000
         vertex -1.650000e+001 2.940000e+001 1.000000e+000
      endloop
   endfacet
   facet normal -0.000000e+000 1.000000e+000 0.000000e+000
      outer loop
         vertex -1.650000e+001 2.940000e+001 0.000000e+000
         vertex -1.650000e+001 2.940000e+001 1.000000e+000
         vertex 1.800231e-015 2.940000e+001 1.000000e+000
      endloop
   endfacet
   facet normal 0.000000e+000 1.000000e+000 0.000000e+000
      outer loop
         vertex 1.800231e-015 2.940000e+001 0.000000e+000
         vertex -1.650000e+001 2.940000e+001 0.000000e+000
         vertex 1.800231e-015 2.940000e+001 1.000000e+000
      endloop
   endfacet
   facet normal 1.000000e+000 -6.123234e-017 0.000000e+000
      outer loop
         vertex 1.800231e-015 2.940000e+001 0.000000e+000
         vertex 1.800231e-015 2.940000e+001 1.000000e+000
         vertex 0.000000e+000 0.000000e+000 1.000000e+000
      endloop
   endfacet
   facet normal 1.000000e+000 -6.123234e-017 0.000000e+000
      outer loop
         vertex 0.000000e+000 0.000000e+000 0.000000e+000
         vertex 1.800231e-015 2.940000e+001 0.000000e+000
         vertex 0.000000e+000 0.000000e+000 1.000000e+000
      endloop
   endfacet
   facet normal 0.000000e+000 0.000000e+000 -1.000000e+000
      outer loop
         vertex 1.800231e-015 2.940000e+001 0.000000e+000
         vertex 0.000000e+000 0.000000e+000 0.000000e+000
         vertex -1.650000e+001 2.940000e+001 0.000000e+000
      endloop
   endfacet
   facet normal 0.000000e+000 0.000000e+000 -1.000000e+000
      outer loop
         vertex -1.650000e+001 2.020667e-015 0.000000e+000
         vertex -1.650000e+001 2.940000e+001 0.000000e+000
         vertex 0.000000e+000 0.000000e+000 0.000000e+000
      endloop
   endfacet
   facet normal -0.000000e+000 0.000000e+000 1.000000e+000
      outer loop
         vertex -1.650000e+001 2.940000e+001 1.000000e+000
         vertex -1.650000e+001 2.020667e-015 1.000000e+000
         vertex 0.000000e+000 0.000000e+000 1.000000e+000
      endloop
   endfacet
   facet normal 0.000000e+000 -0.000000e+000 1.000000e+000
      outer loop
         vertex -1.650000e+001 2.940000e+001 1.000000e+000
         vertex 0.000000e+000 0.000000e+000 1.000000e+000
         vertex 1.800231e-015 2.940000e+001 1.000000e+000
      endloop
   endfacet
endsolid
